<?xml version="1.0" standalone="no"?>
<!DOCTYPE svg PUBLIC "-//W3C//DTD SVG 20010904//EN"
 "http://www.w3.org/TR/2001/REC-SVG-20010904/DTD/svg10.dtd">
<svg version="1.0" xmlns="http://www.w3.org/2000/svg"
 width="454.000000pt" height="533.000000pt" viewBox="0 0 454.000000 533.000000"
 preserveAspectRatio="xMidYMid meet">

<g transform="translate(0.000000,533.000000) scale(0.100000,-0.100000)"
fill="#000000" stroke="none">
<path d="M2621 4759 c-25 -5 -79 -25 -120 -45 -63 -30 -90 -38 -157 -42 -72
-4 -85 -2 -132 22 -37 18 -67 26 -106 26 -119 0 -410 -76 -541 -142 -97 -49
-179 -122 -257 -227 -39 -53 -99 -128 -132 -166 -76 -87 -150 -213 -182 -306
-13 -38 -37 -100 -53 -137 -27 -62 -45 -118 -133 -407 -46 -152 -45 -228 5
-390 20 -66 50 -177 67 -248 17 -70 41 -151 53 -180 20 -45 25 -76 31 -217 8
-193 19 -252 79 -419 55 -149 80 -181 145 -181 24 0 52 4 62 10 21 11 33 -12
55 -106 20 -88 86 -258 138 -355 35 -64 47 -96 47 -129 0 -79 81 -186 193
-252 37 -22 98 -68 136 -102 75 -67 228 -159 294 -177 88 -24 194 -11 402 49
39 11 100 24 137 30 112 17 164 50 350 227 l168 160 99 195 c53 107 102 209
108 225 8 25 27 38 95 73 147 72 240 183 291 347 24 76 42 263 42 430 l0 150
49 32 c72 47 114 91 143 151 35 71 34 167 -2 367 -14 83 -32 188 -40 235 -16
105 -86 388 -113 455 -47 118 -255 526 -289 568 -21 25 -76 75 -123 110 -47
35 -129 112 -183 170 -131 143 -162 158 -340 167 -73 4 -145 12 -162 18 -50
17 -78 20 -124 11z m120 -135 c26 -9 94 -18 164 -21 144 -7 167 -19 251 -127
53 -69 122 -135 215 -205 81 -62 93 -82 243 -396 73 -153 112 -246 126 -305
11 -47 29 -119 40 -160 10 -41 26 -118 34 -170 8 -52 26 -158 41 -235 14 -77
26 -172 28 -211 2 -87 -8 -105 -105 -179 -102 -78 -103 -80 -104 -285 -1 -261
-15 -388 -54 -482 -18 -43 -49 -97 -70 -120 -40 -46 -127 -102 -173 -114 l-29
-7 16 30 c8 17 25 33 36 36 18 5 21 12 18 54 -3 44 -5 48 -28 48 -21 0 -31
-12 -64 -78 -35 -70 -38 -79 -24 -93 13 -14 5 -34 -75 -197 -49 -100 -93 -192
-98 -204 -15 -40 -60 -104 -68 -98 -5 2 -12 24 -15 48 -8 50 -52 148 -95 211
-32 47 -55 123 -77 261 -8 49 -25 113 -38 141 -33 72 -70 95 -169 105 -44 4
-107 18 -139 30 -51 19 -68 20 -145 13 -49 -5 -95 -7 -103 -6 -103 15 -148 13
-205 -8 -33 -12 -89 -29 -124 -37 -35 -7 -72 -18 -82 -24 -11 -6 -19 -6 -19 0
0 17 101 274 119 305 24 39 61 135 61 159 0 26 -29 33 -50 11 -21 -21 -54 -96
-142 -324 -49 -127 -57 -158 -48 -174 9 -15 8 -22 -9 -40 -11 -11 -30 -44 -43
-72 -13 -27 -39 -74 -58 -104 -33 -52 -34 -57 -36 -159 -2 -86 -25 -257 -36
-266 -2 -1 -19 0 -38 2 -34 4 -37 9 -77 96 -39 88 -99 280 -123 397 -6 30 -25
82 -43 115 -28 53 -36 60 -62 60 -23 0 -33 -7 -43 -27 -14 -30 -33 -36 -49
-15 -6 6 -29 69 -52 138 -43 131 -58 224 -67 439 -4 80 -11 120 -29 165 -14
33 -41 128 -60 210 -20 83 -47 188 -62 235 -41 133 -37 191 25 392 53 171 73
227 136 383 58 145 106 231 174 313 34 42 100 127 146 188 88 116 169 188 256
227 118 52 352 107 457 107 25 0 57 -9 78 -21 82 -49 229 -40 365 22 93 42
135 47 201 23z m-507 -2775 c30 -8 64 -8 130 1 86 11 94 10 146 -10 30 -12 92
-25 137 -30 46 -4 90 -13 99 -21 27 -22 52 -89 64 -170 17 -114 58 -248 91
-296 44 -63 76 -139 90 -211 l12 -64 -104 -104 c-124 -124 -169 -150 -290
-164 -46 -5 -100 -15 -119 -20 -137 -41 -291 -52 -355 -26 -60 25 -172 103
-241 167 -34 32 -87 72 -118 89 -78 44 -120 94 -112 134 3 17 14 80 26 140 11
60 20 146 20 190 0 65 4 87 21 111 11 17 35 60 54 96 38 75 97 126 154 134 20
3 63 15 96 26 117 41 140 44 199 28z"/>
<path d="M2135 4225 c-44 -13 -93 -24 -110 -24 -27 -1 -105 -36 -300 -134 -95
-48 -135 -75 -215 -146 -41 -37 -94 -81 -116 -99 -54 -41 -93 -103 -155 -243
l-49 -113 0 -160 c0 -105 6 -189 16 -245 16 -82 16 -312 1 -327 -3 -3 -16 1
-29 10 -45 32 -116 10 -138 -44 -10 -24 -10 -33 0 -45 18 -21 37 -19 51 8 11
21 28 37 39 37 3 0 21 -14 40 -30 43 -37 64 -38 86 -5 25 39 32 311 10 424
-10 51 -16 136 -16 221 l0 138 48 108 c27 60 58 125 70 144 34 55 270 250 367
303 47 26 91 47 97 47 6 0 44 18 84 40 39 22 96 44 125 49 30 5 90 19 134 31
73 20 88 20 170 10 50 -7 115 -16 145 -22 30 -6 80 -14 110 -18 63 -9 104 -23
211 -74 41 -19 123 -47 182 -62 l106 -26 97 -104 c53 -58 116 -118 139 -134
72 -50 85 -76 106 -218 10 -70 30 -164 44 -210 45 -144 60 -587 24 -700 -13
-41 -12 -46 13 -90 27 -48 54 -64 69 -40 14 21 10 65 -7 79 -12 10 -14 22 -9
48 13 62 16 389 6 515 -6 77 -19 150 -35 201 -13 44 -32 130 -40 190 -26 177
-43 210 -140 281 -31 21 -77 64 -103 94 -120 138 -129 144 -252 175 -61 15
-144 43 -184 62 -128 62 -189 78 -427 108 -143 19 -172 18 -265 -10z"/>
<path d="M2360 3235 c-7 -8 -10 -30 -8 -49 3 -25 -1 -37 -14 -45 -21 -13 -24
-49 -4 -57 54 -21 113 107 70 150 -19 20 -28 20 -44 1z"/>
<path d="M2456 3204 c-19 -18 -20 -28 -6 -55 12 -21 59 -26 61 -6 4 38 -12 77
-32 77 -4 0 -15 -7 -23 -16z"/>
<path d="M2709 3137 c-36 -13 -72 -28 -80 -32 -36 -20 -118 -88 -123 -101 -16
-43 40 -61 67 -21 22 34 114 84 187 103 83 21 167 13 224 -21 78 -47 105 -56
126 -45 30 16 24 38 -17 58 -21 11 -60 32 -88 48 -43 24 -62 29 -140 31 -75 3
-101 0 -156 -20z"/>
<path d="M1840 3135 c-163 -14 -212 -29 -342 -100 -91 -50 -108 -69 -84 -93
13 -13 26 -8 109 36 140 74 172 83 357 97 l165 12 20 -24 c14 -16 26 -22 38
-18 25 10 21 52 -8 80 -28 29 -35 29 -255 10z"/>
<path d="M2157 2973 c-11 -10 -8 -51 3 -58 19 -12 10 -47 -30 -114 -22 -37
-40 -74 -40 -83 0 -21 29 -31 47 -16 26 21 103 162 103 187 0 45 -61 107 -83
84z"/>
<path d="M2486 2918 c-42 -68 -48 -111 -40 -255 l9 -138 25 0 25 0 0 135 c0
107 4 147 19 191 11 31 16 64 13 73 -9 23 -34 20 -51 -6z"/>
<path d="M1739 2897 c-84 -36 -199 -105 -199 -119 0 -16 20 -48 30 -48 6 0 19
-9 29 -19 33 -33 86 -37 146 -12 28 12 81 26 116 32 117 18 137 27 169 71 32
43 38 79 18 96 -7 5 -40 12 -73 15 -33 4 -82 9 -110 12 -42 4 -63 -1 -126 -28z
m199 -44 c81 -11 46 -37 -77 -58 -51 -9 -112 -25 -137 -35 -35 -16 -50 -17
-72 -9 l-27 11 28 22 c53 40 169 85 207 80 19 -3 54 -8 78 -11z"/>
<path d="M2733 2885 c-96 -48 -129 -75 -120 -100 10 -23 40 -18 100 19 96 57
113 62 155 41 20 -9 63 -20 95 -22 31 -3 57 -9 57 -13 0 -30 -83 -44 -305 -53
-43 -2 -50 -5 -53 -24 -2 -14 5 -27 23 -39 24 -15 29 -15 83 0 34 9 95 16 145
16 l87 0 45 41 c53 48 62 72 41 103 -12 20 -25 24 -88 28 -47 3 -88 12 -115
26 -23 12 -46 22 -52 22 -5 0 -49 -20 -98 -45z"/>
<path d="M1110 2375 c-18 -21 -6 -179 15 -211 13 -21 19 -23 36 -13 17 9 20
17 15 47 -3 21 -9 66 -12 102 -9 84 -26 109 -54 75z"/>
<path d="M3484 2316 c-11 -28 1 -48 41 -70 48 -27 63 -71 44 -129 -14 -42 -4
-61 27 -55 29 5 48 73 39 133 -6 42 -14 57 -53 92 -47 44 -88 55 -98 29z"/>
<path d="M2547 2313 c-24 -23 6 -87 49 -108 19 -9 34 -19 34 -23 0 -4 -16 -32
-36 -62 -53 -81 -66 -109 -59 -130 10 -30 42 -24 60 10 9 17 36 62 60 100 55
84 58 114 13 138 -18 9 -46 32 -63 50 -31 32 -46 38 -58 25z"/>
<path d="M2420 2154 c-44 -30 -110 -98 -110 -114 0 -38 65 -57 76 -22 10 31
20 46 47 66 26 19 27 19 47 1 19 -17 22 -17 36 -3 28 28 -6 88 -49 88 -13 0
-34 -7 -47 -16z"/>
<path d="M2073 2135 c-36 -15 -53 -42 -53 -82 0 -62 20 -90 56 -76 12 4 15 17
12 52 -3 39 0 46 17 49 50 7 63 13 68 27 8 19 -19 45 -46 45 -12 -1 -36 -7
-54 -15z"/>
<path d="M1182 1988 c-29 -29 -3 -84 35 -76 20 4 28 28 19 64 -7 26 -34 32
-54 12z"/>
<path d="M3453 1913 c-17 -2 -34 -11 -37 -19 -7 -17 29 -74 46 -74 20 0 78 68
72 84 -6 16 -17 17 -81 9z"/>
<path d="M2125 1660 c-38 -10 -97 -23 -129 -29 -40 -7 -80 -24 -122 -52 -35
-23 -64 -44 -65 -48 -8 -53 -5 -98 8 -118 17 -25 42 -30 61 -11 14 14 138 -5
226 -35 49 -16 73 -18 140 -13 45 4 129 10 187 15 94 7 113 12 175 45 38 20
97 61 132 92 70 63 79 92 36 120 -22 15 -43 16 -154 11 -116 -6 -137 -5 -224
18 -112 29 -174 30 -271 5z m265 -69 l65 -18 -80 -6 c-44 -3 -138 -2 -210 2
-71 4 -119 9 -105 9 14 1 54 11 90 22 74 22 136 20 240 -9z m290 -51 c-25 -22
-72 -54 -104 -71 -52 -28 -74 -33 -170 -40 -61 -4 -136 -11 -167 -15 -44 -5
-69 -2 -115 14 -33 11 -98 26 -147 33 -51 8 -86 18 -84 24 7 19 111 25 327 20
118 -3 242 -2 275 3 55 6 60 9 63 34 4 31 16 35 107 36 l60 1 -45 -39z"/>
</g>
</svg>
